<?xml version="1.0" standalone="no"?>
<!DOCTYPE svg PUBLIC "-//W3C//DTD SVG 20010904//EN"
 "http://www.w3.org/TR/2001/REC-SVG-20010904/DTD/svg10.dtd">
<svg version="1.0" xmlns="http://www.w3.org/2000/svg"
 width="288.000000pt" height="288.000000pt" viewBox="0 0 288.000000 288.000000"
 preserveAspectRatio="xMidYMid meet">
<metadata>
Created by potrace 1.11, written by Peter Selinger 2001-2013
</metadata>
<g transform="translate(0.000000,288.000000) scale(0.100000,-0.100000)"
fill="#000000" stroke="none">
<path d="M0 1440 l0 -1440 1440 0 1440 0 0 1440 0 1440 -1440 0 -1440 0 0
-1440z m2457 1145 c195 -60 258 -223 144 -375 -51 -68 -139 -137 -239 -187
l-87 -44 193 7 193 7 -3 -99 -3 -99 -366 -3 -366 -2 -7 31 c-3 17 -6 53 -6 79
l0 47 105 51 c219 107 342 197 379 281 47 102 -30 191 -155 179 -90 -9 -133
-80 -104 -174 8 -26 13 -49 12 -50 -2 -2 -189 -24 -205 -24 -18 0 -34 89 -30
164 3 65 7 79 34 113 51 62 123 96 244 114 72 10 207 2 267 -16z m-659 -245
l2 -250 -510 0 -510 0 0 -215 0 -215 420 0 420 0 0 -250 0 -250 -420 0 -420 0
0 -470 0 -470 -280 0 -280 0 0 1188 0 1187 787 -2 788 -3 3 -250z"/>
</g>
</svg>
